<?xml version="1.0" encoding="UTF-8" standalone="no"?>
<!DOCTYPE svg PUBLIC "-//W3C//DTD SVG 1.1//EN"
 "http://www.w3.org/Graphics/SVG/1.1/DTD/svg11.dtd">
<!-- Generated by graphviz version 14.1.5 (20260411.2331)
 -->
<!-- Title: EcoPromptArchitecture Pages: 1 -->
<svg width="3320pt" height="841pt"
 viewBox="0.00 0.00 3320.00 841.00" xmlns="http://www.w3.org/2000/svg" xmlns:xlink="http://www.w3.org/1999/xlink">
<g id="graph0" class="graph" transform="scale(1 1) rotate(0) translate(25.2 815.33)">
<title>EcoPromptArchitecture</title>
<polygon fill="#f8fafc" stroke="none" points="-25.2,25.2 -25.2,-815.33 3295.2,-815.33 3295.2,25.2 -25.2,25.2"/>
<g id="clust1" class="cluster">
<title>cluster_frontend</title>
<path fill="#eff6ff" stroke="#bfdbfe" d="M20,-99C20,-99 366,-99 366,-99 372,-99 378,-105 378,-111 378,-111 378,-514.95 378,-514.95 378,-520.95 372,-526.95 366,-526.95 366,-526.95 20,-526.95 20,-526.95 14,-526.95 8,-520.95 8,-514.95 8,-514.95 8,-111 8,-111 8,-105 14,-99 20,-99"/>
<text xml:space="preserve" text-anchor="middle" x="193" y="-509.65" font-family="Times,serif" font-size="14.00">Frontend</text>
</g>
<g id="clust2" class="cluster">
<title>cluster_backend</title>
<path fill="#f0fdf4" stroke="#bbf7d0" d="M717,-102.45C717,-102.45 1001,-102.45 1001,-102.45 1007,-102.45 1013,-108.45 1013,-114.45 1013,-114.45 1013,-360.93 1013,-360.93 1013,-366.93 1007,-372.93 1001,-372.93 1001,-372.93 717,-372.93 717,-372.93 711,-372.93 705,-366.93 705,-360.93 705,-360.93 705,-114.45 705,-114.45 705,-108.45 711,-102.45 717,-102.45"/>
<text xml:space="preserve" text-anchor="middle" x="859" y="-355.62" font-family="Times,serif" font-size="14.00">Backend</text>
</g>
<g id="clust3" class="cluster">
<title>cluster_routes</title>
<path fill="#faf5ff" stroke="#ddd6fe" d="M1033,-99C1033,-99 2045,-99 2045,-99 2051,-99 2057,-105 2057,-111 2057,-111 2057,-522.08 2057,-522.08 2057,-528.08 2051,-534.08 2045,-534.08 2045,-534.08 1033,-534.08 1033,-534.08 1027,-534.08 1021,-528.08 1021,-522.08 1021,-522.08 1021,-111 1021,-111 1021,-105 1027,-99 1033,-99"/>
<text xml:space="preserve" text-anchor="middle" x="1539" y="-516.78" font-family="Times,serif" font-size="14.00">Routing Layers</text>
</g>
<g id="clust4" class="cluster">
<title>cluster_web</title>
<path fill="#f0f9ff" stroke="#bae6fd" d="M621,-419.05C621,-419.05 797,-419.05 797,-419.05 803,-419.05 809,-425.05 809,-431.05 809,-431.05 809,-770.13 809,-770.13 809,-776.13 803,-782.13 797,-782.13 797,-782.13 621,-782.13 621,-782.13 615,-782.13 609,-776.13 609,-770.13 609,-770.13 609,-431.05 609,-431.05 609,-425.05 615,-419.05 621,-419.05"/>
<text xml:space="preserve" text-anchor="middle" x="709" y="-764.83" font-family="Times,serif" font-size="14.00">Web Grounding</text>
</g>
<g id="clust5" class="cluster">
<title>cluster_kb</title>
<path fill="#fff7ed" stroke="#fed7aa" d="M2077,-102.45C2077,-102.45 3250,-102.45 3250,-102.45 3256,-102.45 3262,-108.45 3262,-114.45 3262,-114.45 3262,-357.48 3262,-357.48 3262,-363.48 3256,-369.48 3250,-369.48 3250,-369.48 2077,-369.48 2077,-369.48 2071,-369.48 2065,-363.48 2065,-357.48 2065,-357.48 2065,-114.45 2065,-114.45 2065,-108.45 2071,-102.45 2077,-102.45"/>
<text xml:space="preserve" text-anchor="middle" x="2663.5" y="-352.18" font-family="Times,serif" font-size="14.00">Local Knowledge</text>
</g>
<g id="clust6" class="cluster">
<title>cluster_metrics</title>
<path fill="#f8fafc" stroke="#e2e8f0" d="M398,-8C398,-8 678,-8 678,-8 684,-8 690,-14 690,-20 690,-20 690,-194.9 690,-194.9 690,-200.9 684,-206.9 678,-206.9 678,-206.9 398,-206.9 398,-206.9 392,-206.9 386,-200.9 386,-194.9 386,-194.9 386,-20 386,-20 386,-14 392,-8 398,-8"/>
<text xml:space="preserve" text-anchor="middle" x="538" y="-189.6" font-family="Times,serif" font-size="14.00">Monitoring</text>
</g>
<!-- User -->
<g id="node1" class="node">
<title>User</title>
<path fill="#dcfce7" stroke="#86efac" d="M319,-616.65C319,-616.65 289,-616.65 289,-616.65 283,-616.65 277,-610.65 277,-604.65 277,-604.65 277,-592.65 277,-592.65 277,-586.65 283,-580.65 289,-580.65 289,-580.65 319,-580.65 319,-580.65 325,-580.65 331,-586.65 331,-592.65 331,-592.65 331,-604.65 331,-604.65 331,-610.65 325,-616.65 319,-616.65"/>
<text xml:space="preserve" text-anchor="middle" x="304" y="-594.38" font-family="Arial" font-size="12.00">User</text>
</g>
<!-- UI -->
<g id="node2" class="node">
<title>UI</title>
<path fill="#ffffff" stroke="#cbd5e1" d="M343.33,-469.95C343.33,-469.95 264.67,-469.95 264.67,-469.95 258.67,-469.95 252.67,-463.95 252.67,-457.95 252.67,-457.95 252.67,-439.05 252.67,-439.05 252.67,-433.05 258.67,-427.05 264.67,-427.05 264.67,-427.05 343.33,-427.05 343.33,-427.05 349.33,-427.05 355.33,-433.05 355.33,-439.05 355.33,-439.05 355.33,-457.95 355.33,-457.95 355.33,-463.95 349.33,-469.95 343.33,-469.95"/>
<text xml:space="preserve" text-anchor="middle" x="304" y="-451.35" font-family="Arial" font-size="12.00">React Frontend</text>
<text xml:space="preserve" text-anchor="middle" x="304" y="-437.1" font-family="Arial" font-size="12.00">Vite App</text>
</g>
<!-- User&#45;&gt;UI -->
<g id="edge1" class="edge">
<title>User&#45;&gt;UI</title>
<path fill="none" stroke="#64748b" d="M304,-580.24C304,-580.24 304,-478.74 304,-478.74"/>
<polygon fill="#64748b" stroke="#64748b" points="306.45,-478.74 304,-471.74 301.55,-478.74 306.45,-478.74"/>
</g>
<!-- ChatUI -->
<g id="node3" class="node">
<title>ChatUI</title>
<path fill="#ffffff" stroke="#cbd5e1" d="M186.45,-323.05C186.45,-323.05 27.55,-323.05 27.55,-323.05 21.55,-323.05 15.55,-317.05 15.55,-311.05 15.55,-311.05 15.55,-277.9 15.55,-277.9 15.55,-271.9 21.55,-265.9 27.55,-265.9 27.55,-265.9 186.45,-265.9 186.45,-265.9 192.45,-265.9 198.45,-271.9 198.45,-277.9 198.45,-277.9 198.45,-311.05 198.45,-311.05 198.45,-317.05 192.45,-323.05 186.45,-323.05"/>
<text xml:space="preserve" text-anchor="middle" x="107" y="-304.45" font-family="Arial" font-size="12.00">Chat Console</text>
<text xml:space="preserve" text-anchor="middle" x="107" y="-290.2" font-family="Arial" font-size="12.00">messages, history, web toggle,</text>
<text xml:space="preserve" text-anchor="middle" x="107" y="-275.95" font-family="Arial" font-size="12.00">copy buttons</text>
</g>
<!-- UI&#45;&gt;ChatUI -->
<g id="edge2" class="edge">
<title>UI&#45;&gt;ChatUI</title>
<path fill="none" stroke="#64748b" d="M252.24,-449C193.87,-449 107,-449 107,-449 107,-449 107,-332.05 107,-332.05"/>
<polygon fill="#64748b" stroke="#64748b" points="109.45,-332.05 107,-325.05 104.55,-332.05 109.45,-332.05"/>
</g>
<!-- DashUI -->
<g id="node4" class="node">
<title>DashUI</title>
<path fill="#ffffff" stroke="#cbd5e1" d="M357.58,-323.05C357.58,-323.05 250.42,-323.05 250.42,-323.05 244.42,-323.05 238.42,-317.05 238.42,-311.05 238.42,-311.05 238.42,-277.9 238.42,-277.9 238.42,-271.9 244.42,-265.9 250.42,-265.9 250.42,-265.9 357.58,-265.9 357.58,-265.9 363.58,-265.9 369.58,-271.9 369.58,-277.9 369.58,-277.9 369.58,-311.05 369.58,-311.05 369.58,-317.05 363.58,-323.05 357.58,-323.05"/>
<text xml:space="preserve" text-anchor="middle" x="304" y="-304.45" font-family="Arial" font-size="12.00">Analytics Dashboard</text>
<text xml:space="preserve" text-anchor="middle" x="304" y="-290.2" font-family="Arial" font-size="12.00">latency, cost, energy,</text>
<text xml:space="preserve" text-anchor="middle" x="304" y="-275.95" font-family="Arial" font-size="12.00">route distribution</text>
</g>
<!-- UI&#45;&gt;DashUI -->
<g id="edge3" class="edge">
<title>UI&#45;&gt;DashUI</title>
<path fill="none" stroke="#64748b" d="M321.11,-426.76C321.11,-426.76 321.11,-331.98 321.11,-331.98"/>
<polygon fill="#64748b" stroke="#64748b" points="323.56,-331.97 321.11,-324.98 318.66,-331.98 323.56,-331.97"/>
</g>
<!-- BrowserStorage -->
<g id="node5" class="node">
<title>BrowserStorage</title>
<path fill="#fef9c3" stroke="#fde68a" d="M162.45,-149.9C162.45,-149.9 51.55,-149.9 51.55,-149.9 45.55,-149.9 39.55,-143.9 39.55,-137.9 39.55,-137.9 39.55,-119 39.55,-119 39.55,-113 45.55,-107 51.55,-107 51.55,-107 162.45,-107 162.45,-107 168.45,-107 174.45,-113 174.45,-119 174.45,-119 174.45,-137.9 174.45,-137.9 174.45,-143.9 168.45,-149.9 162.45,-149.9"/>
<text xml:space="preserve" text-anchor="middle" x="107" y="-131.3" font-family="Arial" font-size="12.00">Browser localStorage</text>
<text xml:space="preserve" text-anchor="middle" x="107" y="-117.05" font-family="Arial" font-size="12.00">chat history + titles</text>
</g>
<!-- ChatUI&#45;&gt;BrowserStorage -->
<g id="edge40" class="edge">
<title>ChatUI&#45;&gt;BrowserStorage</title>
<path fill="none" stroke="#64748b" d="M84.51,-265.56C84.51,-265.56 84.51,-158.68 84.51,-158.68"/>
<polygon fill="#64748b" stroke="#64748b" points="86.97,-158.68 84.52,-151.68 82.07,-158.68 86.97,-158.68"/>
</g>
<!-- API -->
<g id="node6" class="node">
<title>API</title>
<path fill="#ffffff" stroke="#cbd5e1" d="M814.58,-315.93C814.58,-315.93 725.42,-315.93 725.42,-315.93 719.42,-315.93 713.42,-309.93 713.42,-303.93 713.42,-303.93 713.42,-285.03 713.42,-285.03 713.42,-279.03 719.42,-273.03 725.42,-273.03 725.42,-273.03 814.58,-273.03 814.58,-273.03 820.58,-273.03 826.58,-279.03 826.58,-285.03 826.58,-285.03 826.58,-303.93 826.58,-303.93 826.58,-309.93 820.58,-315.93 814.58,-315.93"/>
<text xml:space="preserve" text-anchor="middle" x="770" y="-297.33" font-family="Arial" font-size="12.00">FastAPI Backend</text>
<text xml:space="preserve" text-anchor="middle" x="770" y="-283.08" font-family="Arial" font-size="12.00">main.py</text>
</g>
<!-- ChatUI&#45;&gt;API -->
<g id="edge4" class="edge">
<title>ChatUI&#45;&gt;API</title>
<path fill="none" stroke="#64748b" d="M186.45,-265.69C186.45,-229.77 186.45,-173 186.45,-173 186.45,-173 717.73,-173 717.73,-173 717.73,-173 717.73,-264.24 717.73,-264.24"/>
<polygon fill="#64748b" stroke="#64748b" points="715.28,-264.24 717.73,-271.24 720.18,-264.24 715.28,-264.24"/>
</g>
<!-- MetricsAPI -->
<g id="node30" class="node">
<title>MetricsAPI</title>
<path fill="#ffffff" stroke="#cbd5e1" d="M470.2,-146.45C470.2,-146.45 405.8,-146.45 405.8,-146.45 399.8,-146.45 393.8,-140.45 393.8,-134.45 393.8,-134.45 393.8,-122.45 393.8,-122.45 393.8,-116.45 399.8,-110.45 405.8,-110.45 405.8,-110.45 470.2,-110.45 470.2,-110.45 476.2,-110.45 482.2,-116.45 482.2,-122.45 482.2,-122.45 482.2,-134.45 482.2,-134.45 482.2,-140.45 476.2,-146.45 470.2,-146.45"/>
<text xml:space="preserve" text-anchor="middle" x="438" y="-124.17" font-family="Arial" font-size="12.00">GET /metrics</text>
</g>
<!-- DashUI&#45;&gt;MetricsAPI -->
<g id="edge38" class="edge">
<title>DashUI&#45;&gt;MetricsAPI</title>
<path fill="none" stroke="#64748b" d="M369.82,-268C403.71,-268 438,-268 438,-268 438,-268 438,-155.21 438,-155.21"/>
<polygon fill="#64748b" stroke="#64748b" points="440.45,-155.21 438,-148.21 435.55,-155.21 440.45,-155.21"/>
</g>
<!-- BrowserStorage&#45;&gt;ChatUI -->
<g id="edge41" class="edge">
<title>BrowserStorage&#45;&gt;ChatUI</title>
<path fill="none" stroke="#64748b" d="M129.48,-150.15C129.48,-150.15 129.48,-256.99 129.48,-256.99"/>
<polygon fill="#64748b" stroke="#64748b" points="127.04,-256.99 129.49,-263.99 131.94,-256.99 127.04,-256.99"/>
</g>
<!-- Validate -->
<g id="node7" class="node">
<title>Validate</title>
<path fill="#ffffff" stroke="#cbd5e1" d="M811.96,-146.45C811.96,-146.45 734.04,-146.45 734.04,-146.45 728.04,-146.45 722.04,-140.45 722.04,-134.45 722.04,-134.45 722.04,-122.45 722.04,-122.45 722.04,-116.45 728.04,-110.45 734.04,-110.45 734.04,-110.45 811.96,-110.45 811.96,-110.45 817.96,-110.45 823.96,-116.45 823.96,-122.45 823.96,-122.45 823.96,-134.45 823.96,-134.45 823.96,-140.45 817.96,-146.45 811.96,-146.45"/>
<text xml:space="preserve" text-anchor="middle" x="773" y="-124.17" font-family="Arial" font-size="12.00">Input Validation</text>
</g>
<!-- API&#45;&gt;Validate -->
<g id="edge5" class="edge">
<title>API&#45;&gt;Validate</title>
<path fill="none" stroke="#64748b" d="M742.43,-272.77C742.43,-272.77 742.43,-155.11 742.43,-155.11"/>
<polygon fill="#64748b" stroke="#64748b" points="744.88,-155.11 742.43,-148.11 739.98,-155.11 744.88,-155.11"/>
</g>
<!-- Deterministic -->
<g id="node9" class="node">
<title>Deterministic</title>
<path fill="#ffffff" stroke="#cbd5e1" d="M1192.7,-477.07C1192.7,-477.07 1041.3,-477.07 1041.3,-477.07 1035.3,-477.07 1029.3,-471.07 1029.3,-465.07 1029.3,-465.07 1029.3,-431.93 1029.3,-431.93 1029.3,-425.93 1035.3,-419.93 1041.3,-419.93 1041.3,-419.93 1192.7,-419.93 1192.7,-419.93 1198.7,-419.93 1204.7,-425.93 1204.7,-431.93 1204.7,-431.93 1204.7,-465.07 1204.7,-465.07 1204.7,-471.07 1198.7,-477.07 1192.7,-477.07"/>
<text xml:space="preserve" text-anchor="middle" x="1117" y="-458.48" font-family="Arial" font-size="12.00">Deterministic Engine</text>
<text xml:space="preserve" text-anchor="middle" x="1117" y="-444.23" font-family="Arial" font-size="12.00">math, conversions, greetings,</text>
<text xml:space="preserve" text-anchor="middle" x="1117" y="-429.98" font-family="Arial" font-size="12.00">prime checks</text>
</g>
<!-- Validate&#45;&gt;Deterministic -->
<g id="edge6" class="edge">
<title>Validate&#45;&gt;Deterministic</title>
<path fill="none" stroke="#64748b" d="M824.13,-132C919.96,-132 1117,-132 1117,-132 1117,-132 1117,-411.06 1117,-411.06"/>
<polygon fill="#64748b" stroke="#64748b" points="1114.55,-411.06 1117,-418.06 1119.45,-411.06 1114.55,-411.06"/>
</g>
<!-- WebRoute -->
<g id="node10" class="node">
<title>WebRoute</title>
<path fill="#ffffff" stroke="#cbd5e1" d="M1353.7,-466.5C1353.7,-466.5 1256.3,-466.5 1256.3,-466.5 1250.3,-466.5 1244.3,-460.5 1244.3,-454.5 1244.3,-454.5 1244.3,-442.5 1244.3,-442.5 1244.3,-436.5 1250.3,-430.5 1256.3,-430.5 1256.3,-430.5 1353.7,-430.5 1353.7,-430.5 1359.7,-430.5 1365.7,-436.5 1365.7,-442.5 1365.7,-442.5 1365.7,-454.5 1365.7,-454.5 1365.7,-460.5 1359.7,-466.5 1353.7,-466.5"/>
<text xml:space="preserve" text-anchor="middle" x="1305" y="-444.23" font-family="Arial" font-size="12.00">Web Search Route</text>
</g>
<!-- Validate&#45;&gt;WebRoute -->
<g id="edge8" class="edge">
<title>Validate&#45;&gt;WebRoute</title>
<path fill="none" stroke="#64748b" d="M824.01,-125C957.17,-125 1305,-125 1305,-125 1305,-125 1305,-421.67 1305,-421.67"/>
<polygon fill="#64748b" stroke="#64748b" points="1302.55,-421.67 1305,-428.67 1307.45,-421.67 1302.55,-421.67"/>
<text xml:space="preserve" text-anchor="middle" x="1125.5" y="-290.98" font-family="Arial" font-size="10.00">web_search = true</text>
</g>
<!-- TemplateEngine -->
<g id="node11" class="node">
<title>TemplateEngine</title>
<path fill="#ffffff" stroke="#cbd5e1" d="M1700.08,-469.95C1700.08,-469.95 1577.92,-469.95 1577.92,-469.95 1571.92,-469.95 1565.92,-463.95 1565.92,-457.95 1565.92,-457.95 1565.92,-439.05 1565.92,-439.05 1565.92,-433.05 1571.92,-427.05 1577.92,-427.05 1577.92,-427.05 1700.08,-427.05 1700.08,-427.05 1706.08,-427.05 1712.08,-433.05 1712.08,-439.05 1712.08,-439.05 1712.08,-457.95 1712.08,-457.95 1712.08,-463.95 1706.08,-469.95 1700.08,-469.95"/>
<text xml:space="preserve" text-anchor="middle" x="1639" y="-451.35" font-family="Arial" font-size="12.00">Code Template Engine</text>
<text xml:space="preserve" text-anchor="middle" x="1639" y="-437.1" font-family="Arial" font-size="12.00">kb/code_templates.json</text>
</g>
<!-- Validate&#45;&gt;TemplateEngine -->
<g id="edge13" class="edge">
<title>Validate&#45;&gt;TemplateEngine</title>
<path fill="none" stroke="#64748b" d="M762.81,-146.85C762.81,-179.24 762.81,-243 762.81,-243 762.81,-243 1667.31,-243 1667.31,-243 1667.31,-243 1667.31,-418.38 1667.31,-418.38"/>
<polygon fill="#64748b" stroke="#64748b" points="1664.86,-418.38 1667.31,-425.38 1669.76,-418.38 1664.86,-418.38"/>
<text xml:space="preserve" text-anchor="middle" x="1274.12" y="-290.98" font-family="Arial" font-size="10.00">code request</text>
</g>
<!-- KBLookup -->
<g id="node13" class="node">
<title>KBLookup</title>
<path fill="#ffffff" stroke="#cbd5e1" d="M2037.2,-466.5C2037.2,-466.5 1930.8,-466.5 1930.8,-466.5 1924.8,-466.5 1918.8,-460.5 1918.8,-454.5 1918.8,-454.5 1918.8,-442.5 1918.8,-442.5 1918.8,-436.5 1924.8,-430.5 1930.8,-430.5 1930.8,-430.5 2037.2,-430.5 2037.2,-430.5 2043.2,-430.5 2049.2,-436.5 2049.2,-442.5 2049.2,-442.5 2049.2,-454.5 2049.2,-454.5 2049.2,-460.5 2043.2,-466.5 2037.2,-466.5"/>
<text xml:space="preserve" text-anchor="middle" x="1984" y="-444.23" font-family="Arial" font-size="12.00">Domain KB Lookups</text>
</g>
<!-- Validate&#45;&gt;KBLookup -->
<g id="edge17" class="edge">
<title>Validate&#45;&gt;KBLookup</title>
<path fill="none" stroke="#64748b" d="M803.57,-146.91C803.57,-166.91 803.57,-196 803.57,-196 803.57,-196 1984,-196 1984,-196 1984,-196 1984,-421.83 1984,-421.83"/>
<polygon fill="#64748b" stroke="#64748b" points="1981.55,-421.83 1984,-428.83 1986.45,-421.83 1981.55,-421.83"/>
</g>
<!-- RAG -->
<g id="node14" class="node">
<title>RAG</title>
<path fill="#ffffff" stroke="#cbd5e1" d="M1513.95,-469.95C1513.95,-469.95 1418.05,-469.95 1418.05,-469.95 1412.05,-469.95 1406.05,-463.95 1406.05,-457.95 1406.05,-457.95 1406.05,-439.05 1406.05,-439.05 1406.05,-433.05 1412.05,-427.05 1418.05,-427.05 1418.05,-427.05 1513.95,-427.05 1513.95,-427.05 1519.95,-427.05 1525.95,-433.05 1525.95,-439.05 1525.95,-439.05 1525.95,-457.95 1525.95,-457.95 1525.95,-463.95 1519.95,-469.95 1513.95,-469.95"/>
<text xml:space="preserve" text-anchor="middle" x="1466" y="-451.35" font-family="Arial" font-size="12.00">Local RAG Engine</text>
<text xml:space="preserve" text-anchor="middle" x="1466" y="-437.1" font-family="Arial" font-size="12.00">retrieve_top_k</text>
</g>
<!-- Validate&#45;&gt;RAG -->
<g id="edge26" class="edge">
<title>Validate&#45;&gt;RAG</title>
<path fill="none" stroke="#64748b" d="M824.23,-118C978.68,-118 1429.3,-118 1429.3,-118 1429.3,-118 1429.3,-418.05 1429.3,-418.05"/>
<polygon fill="#64748b" stroke="#64748b" points="1426.85,-418.05 1429.3,-425.05 1431.75,-418.05 1426.85,-418.05"/>
</g>
<!-- LocalModel -->
<g id="node15" class="node">
<title>LocalModel</title>
<path fill="#ffffff" stroke="#cbd5e1" d="M1866.33,-469.95C1866.33,-469.95 1763.67,-469.95 1763.67,-469.95 1757.67,-469.95 1751.67,-463.95 1751.67,-457.95 1751.67,-457.95 1751.67,-439.05 1751.67,-439.05 1751.67,-433.05 1757.67,-427.05 1763.67,-427.05 1763.67,-427.05 1866.33,-427.05 1866.33,-427.05 1872.33,-427.05 1878.33,-433.05 1878.33,-439.05 1878.33,-439.05 1878.33,-457.95 1878.33,-457.95 1878.33,-463.95 1872.33,-469.95 1866.33,-469.95"/>
<text xml:space="preserve" text-anchor="middle" x="1815" y="-451.35" font-family="Arial" font-size="12.00">Local Ollama Model</text>
<text xml:space="preserve" text-anchor="middle" x="1815" y="-437.1" font-family="Arial" font-size="12.00">llama3.2:1b</text>
</g>
<!-- Validate&#45;&gt;LocalModel -->
<g id="edge30" class="edge">
<title>Validate&#45;&gt;LocalModel</title>
<path fill="none" stroke="#64748b" d="M783.19,-146.54C783.19,-173.22 783.19,-220 783.19,-220 783.19,-220 1823.2,-220 1823.2,-220 1823.2,-220 1823.2,-418.08 1823.2,-418.08"/>
<polygon fill="#64748b" stroke="#64748b" points="1820.76,-418.08 1823.21,-425.08 1825.66,-418.08 1820.76,-418.08"/>
<text xml:space="preserve" text-anchor="middle" x="656.88" y="-290.98" font-family="Arial" font-size="10.00">fallback</text>
</g>
<!-- Response -->
<g id="node8" class="node">
<title>Response</title>
<path fill="#dcfce7" stroke="#86efac" d="M993.33,-312.48C993.33,-312.48 878.67,-312.48 878.67,-312.48 872.67,-312.48 866.67,-306.48 866.67,-300.48 866.67,-300.48 866.67,-288.48 866.67,-288.48 866.67,-282.48 872.67,-276.48 878.67,-276.48 878.67,-276.48 993.33,-276.48 993.33,-276.48 999.33,-276.48 1005.33,-282.48 1005.33,-288.48 1005.33,-288.48 1005.33,-300.48 1005.33,-300.48 1005.33,-306.48 999.33,-312.48 993.33,-312.48"/>
<text xml:space="preserve" text-anchor="middle" x="936" y="-290.2" font-family="Arial" font-size="12.00">Response to Frontend</text>
</g>
<!-- Response&#45;&gt;UI -->
<g id="edge35" class="edge">
<title>Response&#45;&gt;UI</title>
<path fill="none" stroke="#64748b" d="M894.4,-312.9C894.4,-348.88 894.4,-425 894.4,-425 894.4,-425 286.89,-425 286.89,-425 286.89,-425 286.89,-425.18 286.89,-425.18"/>
<polygon fill="#64748b" stroke="#64748b" points="284.44,-418.33 286.89,-425.33 289.34,-418.33 284.44,-418.33"/>
</g>
<!-- MetricsUpdate -->
<g id="node31" class="node">
<title>MetricsUpdate</title>
<path fill="#ffffff" stroke="#cbd5e1" d="M670.21,-149.9C670.21,-149.9 533.79,-149.9 533.79,-149.9 527.79,-149.9 521.79,-143.9 521.79,-137.9 521.79,-137.9 521.79,-119 521.79,-119 521.79,-113 527.79,-107 533.79,-107 533.79,-107 670.21,-107 670.21,-107 676.21,-107 682.21,-113 682.21,-119 682.21,-119 682.21,-137.9 682.21,-137.9 682.21,-143.9 676.21,-149.9 670.21,-149.9"/>
<text xml:space="preserve" text-anchor="middle" x="602" y="-131.3" font-family="Arial" font-size="12.00">Update Metrics</text>
<text xml:space="preserve" text-anchor="middle" x="602" y="-117.05" font-family="Arial" font-size="12.00">route, latency, energy, cost</text>
</g>
<!-- Response&#45;&gt;MetricsUpdate -->
<g id="edge36" class="edge">
<title>Response&#45;&gt;MetricsUpdate</title>
<path fill="none" stroke="#64748b" d="M901.34,-276.23C901.34,-272.15 901.34,-269 901.34,-269 901.34,-269 652.75,-269 652.75,-269 652.75,-269 652.75,-158.62 652.75,-158.62"/>
<polygon fill="#64748b" stroke="#64748b" points="655.2,-158.62 652.75,-151.62 650.3,-158.62 655.2,-158.62"/>
</g>
<!-- Deterministic&#45;&gt;Response -->
<g id="edge7" class="edge">
<title>Deterministic&#45;&gt;Response</title>
<path fill="none" stroke="#64748b" d="M1029.03,-422C988.76,-422 949.87,-422 949.87,-422 949.87,-422 949.87,-321.26 949.87,-321.26"/>
<polygon fill="#64748b" stroke="#64748b" points="952.32,-321.26 949.87,-314.26 947.42,-321.26 952.32,-321.26"/>
<text xml:space="preserve" text-anchor="middle" x="706.75" y="-383.43" font-family="Arial" font-size="10.00">matched</text>
</g>
<!-- Gemini -->
<g id="node18" class="node">
<title>Gemini</title>
<path fill="#ffffff" stroke="#cbd5e1" d="M782.83,-725.13C782.83,-725.13 647.17,-725.13 647.17,-725.13 641.17,-725.13 635.17,-719.13 635.17,-713.13 635.17,-713.13 635.17,-694.23 635.17,-694.23 635.17,-688.23 641.17,-682.23 647.17,-682.23 647.17,-682.23 782.83,-682.23 782.83,-682.23 788.83,-682.23 794.83,-688.23 794.83,-694.23 794.83,-694.23 794.83,-713.13 794.83,-713.13 794.83,-719.13 788.83,-725.13 782.83,-725.13"/>
<text xml:space="preserve" text-anchor="middle" x="715" y="-706.53" font-family="Arial" font-size="12.00">Gemini API</text>
<text xml:space="preserve" text-anchor="middle" x="715" y="-692.28" font-family="Arial" font-size="12.00">Google Search Grounding</text>
</g>
<!-- WebRoute&#45;&gt;Gemini -->
<g id="edge9" class="edge">
<title>WebRoute&#45;&gt;Gemini</title>
<path fill="none" stroke="#64748b" d="M1305,-466.87C1305,-525.46 1305,-704 1305,-704 1305,-704 803.7,-704 803.7,-704"/>
<polygon fill="#64748b" stroke="#64748b" points="803.7,-701.55 796.7,-704 803.7,-706.45 803.7,-701.55"/>
</g>
<!-- TemplateEngine&#45;&gt;Response -->
<g id="edge14" class="edge">
<title>TemplateEngine&#45;&gt;Response</title>
<path fill="none" stroke="#64748b" d="M1593.1,-426.91C1593.1,-403.98 1593.1,-371 1593.1,-371 1593.1,-371 977.6,-371 977.6,-371 977.6,-371 977.6,-321.12 977.6,-321.12"/>
<polygon fill="#64748b" stroke="#64748b" points="980.05,-321.12 977.6,-314.12 975.15,-321.12 980.05,-321.12"/>
<text xml:space="preserve" text-anchor="middle" x="851.75" y="-383.43" font-family="Arial" font-size="10.00">template match</text>
</g>
<!-- LocalCode -->
<g id="node12" class="node">
<title>LocalCode</title>
<path fill="#ffffff" stroke="#cbd5e1" d="M1635.45,-315.93C1635.45,-315.93 1464.55,-315.93 1464.55,-315.93 1458.55,-315.93 1452.55,-309.93 1452.55,-303.93 1452.55,-303.93 1452.55,-285.03 1452.55,-285.03 1452.55,-279.03 1458.55,-273.03 1464.55,-273.03 1464.55,-273.03 1635.45,-273.03 1635.45,-273.03 1641.45,-273.03 1647.45,-279.03 1647.45,-285.03 1647.45,-285.03 1647.45,-303.93 1647.45,-303.93 1647.45,-309.93 1641.45,-315.93 1635.45,-315.93"/>
<text xml:space="preserve" text-anchor="middle" x="1550" y="-297.33" font-family="Arial" font-size="12.00">Local Code Fallback</text>
<text xml:space="preserve" text-anchor="middle" x="1550" y="-283.08" font-family="Arial" font-size="12.00">normalize into fenced code block</text>
</g>
<!-- TemplateEngine&#45;&gt;LocalCode -->
<g id="edge15" class="edge">
<title>TemplateEngine&#45;&gt;LocalCode</title>
<path fill="none" stroke="#64748b" d="M1620.28,-426.76C1620.28,-426.76 1620.28,-324.62 1620.28,-324.62"/>
<polygon fill="#64748b" stroke="#64748b" points="1622.73,-324.62 1620.28,-317.62 1617.83,-324.62 1622.73,-324.62"/>
<text xml:space="preserve" text-anchor="middle" x="1619.5" y="-383.43" font-family="Arial" font-size="10.00">no template</text>
</g>
<!-- LocalCode&#45;&gt;Response -->
<g id="edge16" class="edge">
<title>LocalCode&#45;&gt;Response</title>
<path fill="none" stroke="#64748b" d="M1452.37,-294C1452.37,-294 1014.08,-294 1014.08,-294"/>
<polygon fill="#64748b" stroke="#64748b" points="1014.08,-291.55 1007.08,-294 1014.08,-296.45 1014.08,-291.55"/>
</g>
<!-- Geography -->
<g id="node21" class="node">
<title>Geography</title>
<path fill="#ffffff" stroke="#cbd5e1" d="M3242.45,-312.48C3242.45,-312.48 3167.55,-312.48 3167.55,-312.48 3161.55,-312.48 3155.55,-306.48 3155.55,-300.48 3155.55,-300.48 3155.55,-288.48 3155.55,-288.48 3155.55,-282.48 3161.55,-276.48 3167.55,-276.48 3167.55,-276.48 3242.45,-276.48 3242.45,-276.48 3248.45,-276.48 3254.45,-282.48 3254.45,-288.48 3254.45,-288.48 3254.45,-300.48 3254.45,-300.48 3254.45,-306.48 3248.45,-312.48 3242.45,-312.48"/>
<text xml:space="preserve" text-anchor="middle" x="3205" y="-290.2" font-family="Arial" font-size="12.00">Geography KB</text>
</g>
<!-- KBLookup&#45;&gt;Geography -->
<g id="edge18" class="edge">
<title>KBLookup&#45;&gt;Geography</title>
<path fill="none" stroke="#64748b" d="M2049.65,-462C2303.26,-462 3205,-462 3205,-462 3205,-462 3205,-321.24 3205,-321.24"/>
<polygon fill="#64748b" stroke="#64748b" points="3207.45,-321.24 3205,-314.24 3202.55,-321.24 3207.45,-321.24"/>
</g>
<!-- MathKB -->
<g id="node22" class="node">
<title>MathKB</title>
<path fill="#ffffff" stroke="#cbd5e1" d="M2670.95,-312.48C2670.95,-312.48 2629.05,-312.48 2629.05,-312.48 2623.05,-312.48 2617.05,-306.48 2617.05,-300.48 2617.05,-300.48 2617.05,-288.48 2617.05,-288.48 2617.05,-282.48 2623.05,-276.48 2629.05,-276.48 2629.05,-276.48 2670.95,-276.48 2670.95,-276.48 2676.95,-276.48 2682.95,-282.48 2682.95,-288.48 2682.95,-288.48 2682.95,-300.48 2682.95,-300.48 2682.95,-306.48 2676.95,-312.48 2670.95,-312.48"/>
<text xml:space="preserve" text-anchor="middle" x="2650" y="-290.2" font-family="Arial" font-size="12.00">Math KB</text>
</g>
<!-- KBLookup&#45;&gt;MathKB -->
<g id="edge19" class="edge">
<title>KBLookup&#45;&gt;MathKB</title>
<path fill="none" stroke="#64748b" d="M2049.68,-444C2217.7,-444 2650,-444 2650,-444 2650,-444 2650,-321.32 2650,-321.32"/>
<polygon fill="#64748b" stroke="#64748b" points="2652.45,-321.32 2650,-314.32 2647.55,-321.32 2652.45,-321.32"/>
</g>
<!-- Science -->
<g id="node23" class="node">
<title>Science</title>
<path fill="#ffffff" stroke="#cbd5e1" d="M2986.58,-312.48C2986.58,-312.48 2927.42,-312.48 2927.42,-312.48 2921.42,-312.48 2915.42,-306.48 2915.42,-300.48 2915.42,-300.48 2915.42,-288.48 2915.42,-288.48 2915.42,-282.48 2921.42,-276.48 2927.42,-276.48 2927.42,-276.48 2986.58,-276.48 2986.58,-276.48 2992.58,-276.48 2998.58,-282.48 2998.58,-288.48 2998.58,-288.48 2998.58,-300.48 2998.58,-300.48 2998.58,-306.48 2992.58,-312.48 2986.58,-312.48"/>
<text xml:space="preserve" text-anchor="middle" x="2957" y="-290.2" font-family="Arial" font-size="12.00">Science KB</text>
</g>
<!-- KBLookup&#45;&gt;Science -->
<g id="edge20" class="edge">
<title>KBLookup&#45;&gt;Science</title>
<path fill="none" stroke="#64748b" d="M2049.35,-453C2267.51,-453 2957,-453 2957,-453 2957,-453 2957,-321.48 2957,-321.48"/>
<polygon fill="#64748b" stroke="#64748b" points="2959.45,-321.48 2957,-314.48 2954.55,-321.48 2959.45,-321.48"/>
</g>
<!-- History -->
<g id="node24" class="node">
<title>History</title>
<path fill="#ffffff" stroke="#cbd5e1" d="M3103.58,-312.48C3103.58,-312.48 3050.42,-312.48 3050.42,-312.48 3044.42,-312.48 3038.42,-306.48 3038.42,-300.48 3038.42,-300.48 3038.42,-288.48 3038.42,-288.48 3038.42,-282.48 3044.42,-276.48 3050.42,-276.48 3050.42,-276.48 3103.58,-276.48 3103.58,-276.48 3109.58,-276.48 3115.58,-282.48 3115.58,-288.48 3115.58,-288.48 3115.58,-300.48 3115.58,-300.48 3115.58,-306.48 3109.58,-312.48 3103.58,-312.48"/>
<text xml:space="preserve" text-anchor="middle" x="3077" y="-290.2" font-family="Arial" font-size="12.00">History KB</text>
</g>
<!-- KBLookup&#45;&gt;History -->
<g id="edge21" class="edge">
<title>KBLookup&#45;&gt;History</title>
<path fill="none" stroke="#64748b" d="M2049.5,-458C2285.31,-458 3077,-458 3077,-458 3077,-458 3077,-321.43 3077,-321.43"/>
<polygon fill="#64748b" stroke="#64748b" points="3079.45,-321.43 3077,-314.43 3074.55,-321.43 3079.45,-321.43"/>
</g>
<!-- Programming -->
<g id="node25" class="node">
<title>Programming</title>
<path fill="#ffffff" stroke="#cbd5e1" d="M2564.83,-312.48C2564.83,-312.48 2477.17,-312.48 2477.17,-312.48 2471.17,-312.48 2465.17,-306.48 2465.17,-300.48 2465.17,-300.48 2465.17,-288.48 2465.17,-288.48 2465.17,-282.48 2471.17,-276.48 2477.17,-276.48 2477.17,-276.48 2564.83,-276.48 2564.83,-276.48 2570.83,-276.48 2576.83,-282.48 2576.83,-288.48 2576.83,-288.48 2576.83,-300.48 2576.83,-300.48 2576.83,-306.48 2570.83,-312.48 2564.83,-312.48"/>
<text xml:space="preserve" text-anchor="middle" x="2521" y="-290.2" font-family="Arial" font-size="12.00">Programming KB</text>
</g>
<!-- KBLookup&#45;&gt;Programming -->
<g id="edge22" class="edge">
<title>KBLookup&#45;&gt;Programming</title>
<path fill="none" stroke="#64748b" d="M2049.58,-440C2192.83,-440 2521,-440 2521,-440 2521,-440 2521,-321.42 2521,-321.42"/>
<polygon fill="#64748b" stroke="#64748b" points="2523.45,-321.42 2521,-314.42 2518.55,-321.42 2523.45,-321.42"/>
</g>
<!-- HighLevel -->
<g id="node26" class="node">
<title>HighLevel</title>
<path fill="#ffffff" stroke="#cbd5e1" d="M2863.08,-312.48C2863.08,-312.48 2734.92,-312.48 2734.92,-312.48 2728.92,-312.48 2722.92,-306.48 2722.92,-300.48 2722.92,-300.48 2722.92,-288.48 2722.92,-288.48 2722.92,-282.48 2728.92,-276.48 2734.92,-276.48 2734.92,-276.48 2863.08,-276.48 2863.08,-276.48 2869.08,-276.48 2875.08,-282.48 2875.08,-288.48 2875.08,-288.48 2875.08,-300.48 2875.08,-300.48 2875.08,-306.48 2869.08,-312.48 2863.08,-312.48"/>
<text xml:space="preserve" text-anchor="middle" x="2799" y="-290.2" font-family="Arial" font-size="12.00">High&#45;Level Concepts KB</text>
</g>
<!-- KBLookup&#45;&gt;HighLevel -->
<g id="edge23" class="edge">
<title>KBLookup&#45;&gt;HighLevel</title>
<path fill="none" stroke="#64748b" d="M2049.66,-449C2243.37,-449 2799,-449 2799,-449 2799,-449 2799,-321.32 2799,-321.32"/>
<polygon fill="#64748b" stroke="#64748b" points="2801.45,-321.32 2799,-314.32 2796.55,-321.32 2801.45,-321.32"/>
</g>
<!-- KBContext -->
<g id="node27" class="node">
<title>KBContext</title>
<path fill="#ffffff" stroke="#cbd5e1" d="M2412.7,-312.48C2412.7,-312.48 2303.3,-312.48 2303.3,-312.48 2297.3,-312.48 2291.3,-306.48 2291.3,-300.48 2291.3,-300.48 2291.3,-288.48 2291.3,-288.48 2291.3,-282.48 2297.3,-276.48 2303.3,-276.48 2303.3,-276.48 2412.7,-276.48 2412.7,-276.48 2418.7,-276.48 2424.7,-282.48 2424.7,-288.48 2424.7,-288.48 2424.7,-300.48 2424.7,-300.48 2424.7,-306.48 2418.7,-312.48 2412.7,-312.48"/>
<text xml:space="preserve" text-anchor="middle" x="2358" y="-290.2" font-family="Arial" font-size="12.00">Build Context Prompt</text>
</g>
<!-- KBLookup&#45;&gt;KBContext -->
<g id="edge24" class="edge">
<title>KBLookup&#45;&gt;KBContext</title>
<path fill="none" stroke="#64748b" d="M2049.43,-435C2161.97,-435 2380.24,-435 2380.24,-435 2380.24,-435 2380.24,-321.36 2380.24,-321.36"/>
<polygon fill="#64748b" stroke="#64748b" points="2382.69,-321.36 2380.24,-314.36 2377.79,-321.36 2382.69,-321.36"/>
<text xml:space="preserve" text-anchor="middle" x="2364.25" y="-383.43" font-family="Arial" font-size="10.00">relevant match</text>
</g>
<!-- LocalJSON -->
<g id="node28" class="node">
<title>LocalJSON</title>
<path fill="#ffffff" stroke="#cbd5e1" d="M2238.83,-312.48C2238.83,-312.48 2085.17,-312.48 2085.17,-312.48 2079.17,-312.48 2073.17,-306.48 2073.17,-300.48 2073.17,-300.48 2073.17,-288.48 2073.17,-288.48 2073.17,-282.48 2079.17,-276.48 2085.17,-276.48 2085.17,-276.48 2238.83,-276.48 2238.83,-276.48 2244.83,-276.48 2250.83,-282.48 2250.83,-288.48 2250.83,-288.48 2250.83,-300.48 2250.83,-300.48 2250.83,-306.48 2244.83,-312.48 2238.83,-312.48"/>
<text xml:space="preserve" text-anchor="middle" x="2162" y="-290.2" font-family="Arial" font-size="12.00">Local JSON Knowledge Files</text>
</g>
<!-- RAG&#45;&gt;LocalJSON -->
<g id="edge27" class="edge">
<title>RAG&#45;&gt;LocalJSON</title>
<path fill="none" stroke="#64748b" d="M1489.25,-426.98C1489.25,-424.59 1489.25,-423 1489.25,-423 1489.25,-423 2162,-423 2162,-423 2162,-423 2162,-321.4 2162,-321.4"/>
<polygon fill="#64748b" stroke="#64748b" points="2164.45,-321.4 2162,-314.4 2159.55,-321.4 2164.45,-321.4"/>
</g>
<!-- WeakCheck -->
<g id="node16" class="node">
<title>WeakCheck</title>
<path fill="#ffffff" stroke="#cbd5e1" d="M1792.83,-315.93C1792.83,-315.93 1699.17,-315.93 1699.17,-315.93 1693.17,-315.93 1687.17,-309.93 1687.17,-303.93 1687.17,-303.93 1687.17,-285.03 1687.17,-285.03 1687.17,-279.03 1693.17,-273.03 1699.17,-273.03 1699.17,-273.03 1792.83,-273.03 1792.83,-273.03 1798.83,-273.03 1804.83,-279.03 1804.83,-285.03 1804.83,-285.03 1804.83,-303.93 1804.83,-303.93 1804.83,-309.93 1798.83,-315.93 1792.83,-315.93"/>
<text xml:space="preserve" text-anchor="middle" x="1746" y="-297.33" font-family="Arial" font-size="12.00">Weak Response /</text>
<text xml:space="preserve" text-anchor="middle" x="1746" y="-283.08" font-family="Arial" font-size="12.00">Complexity Check</text>
</g>
<!-- LocalModel&#45;&gt;WeakCheck -->
<g id="edge31" class="edge">
<title>LocalModel&#45;&gt;WeakCheck</title>
<path fill="none" stroke="#64748b" d="M1778.25,-426.76C1778.25,-426.76 1778.25,-324.62 1778.25,-324.62"/>
<polygon fill="#64748b" stroke="#64748b" points="1780.7,-324.62 1778.25,-317.62 1775.8,-324.62 1780.7,-324.62"/>
</g>
<!-- WeakCheck&#45;&gt;Response -->
<g id="edge32" class="edge">
<title>WeakCheck&#45;&gt;Response</title>
<path fill="none" stroke="#64748b" d="M1726.39,-272.54C1726.39,-271.57 1726.39,-271 1726.39,-271 1726.39,-271 970.66,-271 970.66,-271 970.66,-271 970.66,-271.5 970.66,-271.5"/>
<polygon fill="#64748b" stroke="#64748b" points="968.22,-267.46 970.67,-274.46 973.12,-267.46 968.22,-267.46"/>
<text xml:space="preserve" text-anchor="middle" x="1319" y="-383.43" font-family="Arial" font-size="10.00">simple / good enough</text>
</g>
<!-- Groq -->
<g id="node17" class="node">
<title>Groq</title>
<path fill="#fee2e2" stroke="#fca5a5" d="M1613.95,-149.9C1613.95,-149.9 1512.05,-149.9 1512.05,-149.9 1506.05,-149.9 1500.05,-143.9 1500.05,-137.9 1500.05,-137.9 1500.05,-119 1500.05,-119 1500.05,-113 1506.05,-107 1512.05,-107 1512.05,-107 1613.95,-107 1613.95,-107 1619.95,-107 1625.95,-113 1625.95,-119 1625.95,-119 1625.95,-137.9 1625.95,-137.9 1625.95,-143.9 1619.95,-149.9 1613.95,-149.9"/>
<text xml:space="preserve" text-anchor="middle" x="1563" y="-131.3" font-family="Arial" font-size="12.00">Groq Fallback</text>
<text xml:space="preserve" text-anchor="middle" x="1563" y="-117.05" font-family="Arial" font-size="12.00">llama&#45;3.1&#45;8b&#45;instant</text>
</g>
<!-- WeakCheck&#45;&gt;Groq -->
<g id="edge33" class="edge">
<title>WeakCheck&#45;&gt;Groq</title>
<path fill="none" stroke="#64748b" d="M1765.61,-272.63C1765.61,-226.22 1765.61,-122 1765.61,-122 1765.61,-122 1634.79,-122 1634.79,-122"/>
<polygon fill="#64748b" stroke="#64748b" points="1634.79,-119.55 1627.79,-122 1634.79,-124.45 1634.79,-119.55"/>
<text xml:space="preserve" text-anchor="middle" x="1663.12" y="-229.4" font-family="Arial" font-size="10.00">complex or weak</text>
<text xml:space="preserve" text-anchor="middle" x="1663.12" y="-217.4" font-family="Arial" font-size="10.00">non&#45;web prompt</text>
</g>
<!-- Groq&#45;&gt;Response -->
<g id="edge34" class="edge">
<title>Groq&#45;&gt;Response</title>
<path fill="none" stroke="#64748b" d="M1499.72,-139C1340.52,-139 936,-139 936,-139 936,-139 936,-267.52 936,-267.52"/>
<polygon fill="#64748b" stroke="#64748b" points="933.55,-267.52 936,-274.52 938.45,-267.52 933.55,-267.52"/>
</g>
<!-- SourceFilter -->
<g id="node19" class="node">
<title>SourceFilter</title>
<path fill="#ffffff" stroke="#cbd5e1" d="M788.83,-627.23C788.83,-627.23 629.17,-627.23 629.17,-627.23 623.17,-627.23 617.17,-621.23 617.17,-615.23 617.17,-615.23 617.17,-582.08 617.17,-582.08 617.17,-576.08 623.17,-570.08 629.17,-570.08 629.17,-570.08 788.83,-570.08 788.83,-570.08 794.83,-570.08 800.83,-576.08 800.83,-582.08 800.83,-582.08 800.83,-615.23 800.83,-615.23 800.83,-621.23 794.83,-627.23 788.83,-627.23"/>
<text xml:space="preserve" text-anchor="middle" x="709" y="-608.63" font-family="Arial" font-size="12.00">Source Extraction + Trust Filter</text>
<text xml:space="preserve" text-anchor="middle" x="709" y="-594.38" font-family="Arial" font-size="12.00">block weak domains,</text>
<text xml:space="preserve" text-anchor="middle" x="709" y="-580.13" font-family="Arial" font-size="12.00">rank trusted sources</text>
</g>
<!-- Gemini&#45;&gt;SourceFilter -->
<g id="edge10" class="edge">
<title>Gemini&#45;&gt;SourceFilter</title>
<path fill="none" stroke="#64748b" d="M715,-681.91C715,-681.91 715,-636.07 715,-636.07"/>
<polygon fill="#64748b" stroke="#64748b" points="717.45,-636.07 715,-629.07 712.55,-636.07 717.45,-636.07"/>
</g>
<!-- LocalFormatter -->
<g id="node20" class="node">
<title>LocalFormatter</title>
<path fill="#ffffff" stroke="#cbd5e1" d="M768.71,-469.95C768.71,-469.95 635.29,-469.95 635.29,-469.95 629.29,-469.95 623.29,-463.95 623.29,-457.95 623.29,-457.95 623.29,-439.05 623.29,-439.05 623.29,-433.05 629.29,-427.05 635.29,-427.05 635.29,-427.05 768.71,-427.05 768.71,-427.05 774.71,-427.05 780.71,-433.05 780.71,-439.05 780.71,-439.05 780.71,-457.95 780.71,-457.95 780.71,-463.95 774.71,-469.95 768.71,-469.95"/>
<text xml:space="preserve" text-anchor="middle" x="702" y="-451.35" font-family="Arial" font-size="12.00">Optional Local Formatting</text>
<text xml:space="preserve" text-anchor="middle" x="702" y="-437.1" font-family="Arial" font-size="12.00">Ollama llama3.2:1b</text>
</g>
<!-- SourceFilter&#45;&gt;LocalFormatter -->
<g id="edge11" class="edge">
<title>SourceFilter&#45;&gt;LocalFormatter</title>
<path fill="none" stroke="#64748b" d="M702,-569.7C702,-569.7 702,-478.59 702,-478.59"/>
<polygon fill="#64748b" stroke="#64748b" points="704.45,-478.59 702,-471.59 699.55,-478.59 704.45,-478.59"/>
</g>
<!-- LocalFormatter&#45;&gt;Response -->
<g id="edge12" class="edge">
<title>LocalFormatter&#45;&gt;Response</title>
<path fill="none" stroke="#64748b" d="M781.16,-449C844.27,-449 922.13,-449 922.13,-449 922.13,-449 922.13,-321.32 922.13,-321.32"/>
<polygon fill="#64748b" stroke="#64748b" points="924.58,-321.32 922.13,-314.32 919.68,-321.32 924.58,-321.32"/>
</g>
<!-- KBContext&#45;&gt;LocalModel -->
<g id="edge25" class="edge">
<title>KBContext&#45;&gt;LocalModel</title>
<path fill="none" stroke="#64748b" d="M2335.76,-312.81C2335.76,-316.36 2335.76,-319 2335.76,-319 2335.76,-319 1859.95,-319 1859.95,-319 1859.95,-319 1859.95,-418.31 1859.95,-418.31"/>
<polygon fill="#64748b" stroke="#64748b" points="1857.51,-418.31 1859.96,-425.31 1862.41,-418.31 1857.51,-418.31"/>
</g>
<!-- RAGContext -->
<g id="node29" class="node">
<title>RAGContext</title>
<path fill="#ffffff" stroke="#cbd5e1" d="M2227.33,-146.45C2227.33,-146.45 2088.67,-146.45 2088.67,-146.45 2082.67,-146.45 2076.67,-140.45 2076.67,-134.45 2076.67,-134.45 2076.67,-122.45 2076.67,-122.45 2076.67,-116.45 2082.67,-110.45 2088.67,-110.45 2088.67,-110.45 2227.33,-110.45 2227.33,-110.45 2233.33,-110.45 2239.33,-116.45 2239.33,-122.45 2239.33,-122.45 2239.33,-134.45 2239.33,-134.45 2239.33,-140.45 2233.33,-146.45 2227.33,-146.45"/>
<text xml:space="preserve" text-anchor="middle" x="2158" y="-124.17" font-family="Arial" font-size="12.00">Build RAG Context Prompt</text>
</g>
<!-- LocalJSON&#45;&gt;RAGContext -->
<g id="edge28" class="edge">
<title>LocalJSON&#45;&gt;RAGContext</title>
<path fill="none" stroke="#64748b" d="M2158,-276.07C2158,-276.07 2158,-155.45 2158,-155.45"/>
<polygon fill="#64748b" stroke="#64748b" points="2160.45,-155.45 2158,-148.45 2155.55,-155.45 2160.45,-155.45"/>
</g>
<!-- RAGContext&#45;&gt;LocalModel -->
<g id="edge29" class="edge">
<title>RAGContext&#45;&gt;LocalModel</title>
<path fill="none" stroke="#64748b" d="M2076.51,-134C1982.76,-134 1841.58,-134 1841.58,-134 1841.58,-134 1841.58,-418.37 1841.58,-418.37"/>
<polygon fill="#64748b" stroke="#64748b" points="1839.13,-418.37 1841.58,-425.37 1844.03,-418.37 1839.13,-418.37"/>
</g>
<!-- MetricsStore -->
<g id="node32" class="node">
<title>MetricsStore</title>
<path fill="#fef9c3" stroke="#fde68a" d="M597.58,-52C597.58,-52 472.42,-52 472.42,-52 466.42,-52 460.42,-46 460.42,-40 460.42,-40 460.42,-28 460.42,-28 460.42,-22 466.42,-16 472.42,-16 472.42,-16 597.58,-16 597.58,-16 603.58,-16 609.58,-22 609.58,-28 609.58,-28 609.58,-40 609.58,-40 609.58,-46 603.58,-52 597.58,-52"/>
<text xml:space="preserve" text-anchor="middle" x="535" y="-29.73" font-family="Arial" font-size="12.00">In&#45;Memory Metrics Store</text>
</g>
<!-- MetricsAPI&#45;&gt;MetricsStore -->
<g id="edge39" class="edge">
<title>MetricsAPI&#45;&gt;MetricsStore</title>
<path fill="none" stroke="#64748b" d="M471.31,-110.24C471.31,-110.24 471.31,-60.99 471.31,-60.99"/>
<polygon fill="#64748b" stroke="#64748b" points="473.76,-60.99 471.31,-53.99 468.86,-60.99 473.76,-60.99"/>
</g>
<!-- MetricsUpdate&#45;&gt;MetricsStore -->
<g id="edge37" class="edge">
<title>MetricsUpdate&#45;&gt;MetricsStore</title>
<path fill="none" stroke="#64748b" d="M565.69,-106.54C565.69,-106.54 565.69,-60.81 565.69,-60.81"/>
<polygon fill="#64748b" stroke="#64748b" points="568.14,-60.81 565.69,-53.81 563.24,-60.81 568.14,-60.81"/>
</g>
</g>
</svg>
